<svg width="211.261" height="60" viewBox="0 0 211.261 60" fill="none" xmlns="http://www.w3.org/2000/svg">
  <path d="M100.397 10.368v22.14c0 11.592 -5.632 16.619 -14.466 16.619 -5.299 0 -9.938 -2.869 -12.202 -7.563l5.299 -2.43c1.271 2.541 4.084 4.195 6.903 4.195 4.966 0 8.062 -2.869 8.062 -10.215v-0.388c-1.82 2.652 -5.41 3.973 -8.556 3.973 -6.792 0 -12.696 -5.244 -12.696 -13.472 0 -8.279 5.854 -13.417 12.64 -13.417 3.313 0 6.792 1.271 8.612 3.918V10.36h6.403zM93.883 23.18c0 -4.528 -3.756 -7.397 -7.452 -7.397 -3.973 0 -7.23 3.091 -7.23 7.397s3.257 7.508 7.23 7.508c3.918 0 7.452 -2.98 7.452 -7.508m10.598 0c0 -8.173 6.348 -13.361 13.689 -13.361s13.745 5.188 13.745 13.361 -6.403 13.528 -13.745 13.528c-7.336 -0.005 -13.689 -5.36 -13.689 -13.528m20.98 0c0 -4.417 -3.313 -7.397 -7.286 -7.397s-7.23 2.98 -7.23 7.397c0 4.528 3.257 7.563 7.23 7.563s7.286 -3.035 7.286 -7.563m34.008 -12.812 -10.876 25.78h-5.853l-10.765 -25.78h6.903l6.847 17.667 6.792 -17.667z" fill="#fff"/>
  <path d="M187.241 10.368v22.14c0 11.592 -5.632 16.619 -14.466 16.619 -5.299 0 -9.938 -2.869 -12.202 -7.563l5.299 -2.43c1.271 2.541 4.084 4.195 6.903 4.195 4.966 0 8.062 -2.869 8.062 -10.215v-0.388c-1.82 2.652 -5.41 3.973 -8.556 3.973 -6.792 0 -12.696 -5.244 -12.696 -13.472 0 -8.279 5.854 -13.417 12.64 -13.417 3.313 0 6.792 1.271 8.612 3.918V10.36h6.403zm-6.514 12.812c0 -4.528 -3.756 -7.397 -7.452 -7.397 -3.973 0 -7.23 3.091 -7.23 7.397s3.257 7.508 7.23 7.508c3.918 0 7.452 -2.98 7.452 -7.508m30.197 -12.479 -1.271 6.071c-1.492 -0.771 -2.813 -0.938 -3.756 -0.938 -4.195 0 -6.514 4.084 -6.514 11.319v9h-6.459V10.368h6.403v5.521c1.382 -4.306 4.195 -6.071 7.397 -6.071 1.553 0 3.207 0.333 4.2 0.882" fill="#00aeef"/>
  <path d="M50.96 19.645a0.6 0.6 0 0 0 0.166 -0.025 0.54 0.54 0 0 0 0.257 -0.126c0.101 -0.101 0.176 -0.252 0.176 -0.403s-0.076 -0.303 -0.176 -0.403 -0.247 -0.176 -0.424 -0.176c-0.151 0 -0.303 0.076 -0.403 0.176s-0.176 0.252 -0.176 0.403 0.076 0.303 0.176 0.403a0.5 0.5 0 0 0 0.237 0.121q0.083 0.03 0.166 0.03M38.288 55.504a0.5 0.5 0 0 0 -0.373 0.151c-0.076 0.101 -0.151 0.227 -0.151 0.348 0 0.151 0.076 0.277 0.151 0.378q0.101 0.073 0.232 0.101a0.47 0.47 0 0 0 0.418 -0.055c0.005 0 0.01 -0.005 0.01 -0.005 0.03 -0.02 0.061 -0.035 0.091 -0.066 0.101 -0.076 0.151 -0.197 0.151 -0.348a0.48 0.48 0 0 0 -0.151 -0.348 0.5 0.5 0 0 0 -0.378 -0.156m16.331 -10.795c-0.03 -0.01 -0.066 -0.015 -0.096 -0.02 -0.01 0 -0.166 0.005 -0.217 0.025a0.53 0.53 0 0 0 -0.242 0.121 0.6 0.6 0 0 0 -0.176 0.403c0 0.146 0.076 0.297 0.176 0.398s0.247 0.176 0.398 0.176c0.176 0 0.328 -0.076 0.429 -0.176s0.176 -0.252 0.176 -0.398a0.6 0.6 0 0 0 -0.176 -0.403 0.5 0.5 0 0 0 -0.272 -0.126M21.387 56.154c0 -0.151 -0.076 -0.303 -0.176 -0.403s-0.252 -0.151 -0.403 -0.151 -0.303 0.05 -0.403 0.151 -0.176 0.252 -0.176 0.403 0.076 0.303 0.176 0.398c0.101 0.101 0.252 0.176 0.403 0.176s0.303 -0.076 0.403 -0.176a0.57 0.57 0 0 0 0.176 -0.398m36.106 -27.02h-0.025a0.605 0.605 0 0 0 -0.579 0.574 0.62 0.62 0 0 0 0.176 0.403 0.6 0.6 0 0 0 0.403 0.176h0.025c0.151 0 0.303 -0.076 0.403 -0.176s0.176 -0.247 0.176 -0.403a0.57 0.57 0 0 0 -0.176 -0.398c-0.101 -0.101 -0.252 -0.151 -0.403 -0.176M41.52 5.82c-0.383 -0.126 -0.761 -0.272 -1.139 -0.418 -0.02 -0.02 -0.04 -0.05 -0.061 -0.081a7.4 7.4 0 0 0 -0.303 -0.978 6.4 6.4 0 0 0 -0.474 -1.049c-0.05 -0.101 -0.202 -0.126 -0.303 -0.076s-0.151 0.202 -0.076 0.303c0.176 0.328 0.328 0.65 0.454 0.978 0.076 0.222 0.141 0.454 0.192 0.681a33 33 0 0 1 -1.457 -0.645c-0.045 -0.277 -0.076 -0.56 -0.166 -0.837a2.9 2.9 0 0 0 -0.403 -0.903 0.23 0.23 0 0 0 -0.323 -0.05c-0.101 0.076 -0.101 0.227 -0.05 0.328 0.176 0.227 0.277 0.474 0.353 0.751 0.045 0.161 0.076 0.323 0.106 0.484a7 7 0 0 1 -0.328 -0.156 41 41 0 0 1 -1.301 -0.686c0 -0.146 0.025 -0.242 0.025 -0.368 0.05 -0.252 0.101 -0.474 -0.101 -0.802 -0.05 -0.101 -0.176 -0.126 -0.303 -0.076a0.235 0.235 0 0 0 -0.076 0.297c0.121 0.202 0.076 0.328 0.05 0.499q-0.016 0.1 -0.025 0.207c-0.731 -0.408 -1.467 -0.837 -2.224 -1.281 -0.101 -0.05 -0.252 -0.025 -0.303 0.076 -0.076 0.101 -0.025 0.247 0.076 0.297a69 69 0 0 0 2.032 1.195c-0.025 0.01 -0.05 0.025 -0.081 0.035 -0.227 0.126 -0.424 0.227 -0.751 0.227 -0.126 0 -0.227 0.126 -0.227 0.222 0 0.126 0.101 0.227 0.227 0.227 0.429 -0.025 0.676 -0.121 0.953 -0.272q0.173 -0.075 0.368 -0.166c0.489 0.267 0.978 0.524 1.457 0.766 0.071 0.04 0.146 0.071 0.217 0.101 -0.272 0.101 -0.565 0.161 -0.867 0.227 -0.101 0.025 -0.202 0.05 -0.328 0.076 -0.101 0.025 -0.176 0.121 -0.151 0.247s0.126 0.202 0.247 0.176l0.303 -0.076c0.459 -0.086 0.892 -0.182 1.311 -0.403q0.58 0.274 1.17 0.524l-0.176 0.05a6.4 6.4 0 0 1 -0.948 0.202 0.246 0.246 0 0 0 -0.202 0.252c0.025 0.126 0.151 0.202 0.252 0.202 0.348 -0.05 0.676 -0.126 0.998 -0.227a5 5 0 0 0 0.711 -0.217c0.494 0.202 0.988 0.393 1.492 0.57 0.126 0.05 0.252 -0.025 0.272 -0.126 0.055 -0.131 -0.02 -0.257 -0.121 -0.308M5.044 45.414a0.44 0.44 0 0 0 -0.323 0 0.54 0.54 0 0 0 -0.237 0.121c-0.126 0.101 -0.176 0.252 -0.176 0.403s0.05 0.303 0.176 0.403c0.101 0.101 0.247 0.176 0.398 0.176s0.303 -0.076 0.403 -0.176c0.126 -0.101 0.176 -0.252 0.176 -0.403s-0.05 -0.303 -0.176 -0.403a0.6 0.6 0 0 0 -0.242 -0.121m45.146 -31.916q0.009 -0.097 0.04 -0.217c0.025 -0.101 0.05 -0.176 0.076 -0.277a9.5 9.5 0 0 0 0.126 -1.503c0 -0.126 -0.101 -0.222 -0.227 -0.222s-0.222 0.101 -0.222 0.222c0 0.494 -0.05 0.963 -0.126 1.407a33 33 0 0 0 -0.61 -1.013c0.015 -0.035 0.055 -0.267 0.086 -0.343 0.076 -0.424 0.101 -0.903 0.076 -1.402 0 -0.101 -0.101 -0.202 -0.222 -0.202 -0.126 0 -0.227 0.126 -0.202 0.227 0.02 0.408 -0.015 0.822 -0.081 1.175a46 46 0 0 0 -0.736 -1.084c0.076 -0.227 0.121 -0.479 0.146 -0.741 0.025 -0.303 0.05 -0.625 0.025 -0.923a0.225 0.225 0 0 0 -0.222 -0.227c-0.126 0 -0.202 0.101 -0.202 0.227 0 0.303 0 0.6 -0.05 0.877a5 5 0 0 1 -0.04 0.292 21 21 0 0 0 -0.484 -0.645 15 15 0 0 0 -0.802 -0.998c-0.076 -0.101 -0.227 -0.101 -0.328 -0.025a0.23 0.23 0 0 0 -0.025 0.303c0.272 0.323 0.555 0.676 0.802 1.003 0.146 0.187 0.287 0.383 0.434 0.575 -0.308 -0.061 -0.61 -0.146 -0.882 -0.398a0.237 0.237 0 0 0 -0.328 0.025 0.21 0.21 0 0 0 0.025 0.303c0.449 0.403 0.903 0.479 1.376 0.58 0.055 0 0.126 0.01 0.197 0.03q0.423 0.606 0.817 1.22a1.5 1.5 0 0 1 -0.333 -0.076c-0.252 -0.05 -0.454 -0.151 -0.676 -0.227 -0.101 -0.076 -0.227 -0.025 -0.277 0.101 -0.076 0.101 -0.025 0.247 0.101 0.303 0.222 0.101 0.474 0.202 0.726 0.277 0.237 0.045 0.479 0.081 0.736 0.081q0.334 0.538 0.645 1.084a2 2 0 0 1 -0.378 -0.111 3.5 3.5 0 0 1 -0.802 -0.348c-0.126 -0.05 -0.247 -0.025 -0.303 0.101 -0.076 0.101 -0.025 0.227 0.076 0.303 0.303 0.146 0.575 0.272 0.877 0.373 0.257 0.086 0.519 0.131 0.792 0.156 0.378 0.696 0.741 1.392 1.064 2.097 0.05 0.101 0.176 0.151 0.277 0.101 0.126 -0.05 0.176 -0.176 0.126 -0.303a37 37 0 0 0 -1.089 -2.158m-6.842 -8.38c0.176 0 0.328 -0.05 0.424 -0.151a0.6 0.6 0 0 0 0.176 -0.403c0 -0.176 -0.076 -0.303 -0.176 -0.403s-0.247 -0.176 -0.424 -0.176c-0.151 0 -0.303 0.076 -0.403 0.176s-0.176 0.222 -0.176 0.403c0 0.151 0.076 0.303 0.176 0.403s0.252 0.151 0.403 0.151m9.65 11.496a0.57 0.57 0 0 0 0.327 0 0.54 0.54 0 0 0 0.257 -0.126c0.101 -0.096 0.176 -0.247 0.176 -0.398s-0.076 -0.303 -0.176 -0.403 -0.252 -0.176 -0.429 -0.176a0.606 0.606 0 0 0 -0.579 0.579c0 0.151 0.076 0.303 0.176 0.398a0.6 0.6 0 0 0 0.247 0.126M14.393 6.525c0.176 0 0.303 -0.05 0.429 -0.151a0.53 0.53 0 0 0 0.126 -0.257c0.01 -0.045 0.025 -0.096 0.025 -0.146 0 -0.176 -0.05 -0.303 -0.176 -0.398a0.55 0.55 0 0 0 -0.403 -0.176 0.57 0.57 0 0 0 -0.398 0.176 0.53 0.53 0 0 0 -0.176 0.398 0.563 0.563 0 0 0 0.574 0.554M0.58 31.287a0.6 0.6 0 0 0 0.398 -0.176l-0.01 -0.015a0.54 0.54 0 0 0 0.161 -0.388h0.025a0.5 0.5 0 0 0 -0.176 -0.403 0.5 0.5 0 0 0 -0.237 -0.121 0.54 0.54 0 0 0 -0.323 0 0.53 0.53 0 0 0 -0.242 0.121c-0.126 0.101 -0.176 0.252 -0.176 0.403s0.05 0.303 0.176 0.403a0.57 0.57 0 0 0 0.403 0.176m4.054 -13.644a0.52 0.52 0 0 0 0.378 -0.151c0.076 -0.101 0.151 -0.222 0.151 -0.348 0 -0.151 -0.076 -0.272 -0.151 -0.373a0.64 0.64 0 0 0 -0.378 -0.151c-0.146 0 -0.272 0.076 -0.373 0.151a0.51 0.51 0 0 0 0.373 0.872m10.77 -7.916q0.082 -0.001 0.156 -0.025a0.6 0.6 0 0 0 0.267 -0.121 0.5 0.5 0 0 0 0.121 -0.252 0.5 0.5 0 0 0 0.025 -0.146 0.5 0.5 0 0 0 -0.176 -0.403 0.55 0.55 0 0 0 -0.403 -0.176c-0.151 0 -0.303 0.076 -0.403 0.176s-0.176 0.252 -0.176 0.403 0.076 0.303 0.176 0.403a0.46 0.46 0 0 0 0.242 0.121c0.061 0.01 0.116 0.02 0.171 0.02m0.822 42.651 -1.296 -2.052c-0.076 -0.126 -0.202 -0.151 -0.303 -0.076 -0.101 0.05 -0.151 0.202 -0.076 0.303l0.923 1.492q-0.667 -0.301 -1.326 -0.61a12 12 0 0 0 -0.6 -0.958 13 13 0 0 1 -0.6 -1.024c-0.076 -0.101 -0.202 -0.151 -0.303 -0.101 -0.126 0.076 -0.151 0.202 -0.101 0.303v0.025l0.01 -0.005c0.171 0.343 0.393 0.686 0.615 1.029l0.252 0.388c-0.464 -0.227 -0.923 -0.464 -1.382 -0.701 -0.146 -0.222 -0.323 -0.474 -0.545 -0.817 -0.202 -0.272 -0.378 -0.575 -0.55 -0.797 -0.05 -0.126 -0.202 -0.151 -0.303 -0.076s-0.121 0.202 -0.076 0.303c0.202 0.277 0.378 0.555 0.55 0.827l0.081 0.131a57 57 0 0 1 -2.687 -1.508c-0.101 -0.05 -0.252 -0.025 -0.303 0.076 -0.076 0.101 -0.025 0.252 0.076 0.303a74 74 0 0 0 2.824 1.583q-0.121 0.014 -0.242 0.02c-0.348 0.025 -0.676 0.05 -1.003 0.101 -0.126 0 -0.202 0.126 -0.202 0.252a0.23 0.23 0 0 0 0.277 0.176c0.303 -0.05 0.625 -0.076 0.953 -0.101 0.292 -0.025 0.605 -0.045 0.897 -0.086 0.449 0.232 0.897 0.464 1.346 0.686l-0.469 0.03c-0.454 0.025 -0.903 0.05 -1.301 0.101 -0.126 0 -0.202 0.126 -0.202 0.252 0.025 0.121 0.126 0.202 0.247 0.171 0.398 -0.05 0.852 -0.076 1.276 -0.101 0.418 -0.02 0.832 -0.05 1.205 -0.091q0.734 0.342 1.467 0.676l-1.684 0.398c-0.126 0.025 -0.202 0.151 -0.151 0.252 0.025 0.121 0.151 0.202 0.252 0.176l2.244 -0.555q0.538 0.24 1.084 0.474c-0.57 0.232 -1.624 0.378 -1.699 0.378a0.23 0.23 0 0 0 -0.176 0.272c0 0.101 0.126 0.202 0.247 0.176 0.05 0 1.371 -0.202 2.188 -0.595 0.272 0.111 0.539 0.227 0.817 0.343 0.101 0.05 0.222 0 0.272 -0.126s0 -0.252 -0.126 -0.303a85 85 0 0 1 -2.4 -1.018m43.124 -21.867c0 -0.146 -0.176 -0.252 -0.297 -0.202a13.3 13.3 0 0 0 -2.849 1.78 14 14 0 0 0 -0.368 -2.047c1.603 -2.203 2.309 -4.573 2.188 -7.094 -0.126 -2.576 -1.049 -5.284 -2.753 -8.138 -0.101 -0.151 -0.328 -0.151 -0.398 0.02l-1.553 3.61c-0.136 0.368 -0.247 0.731 -0.343 1.094 -0.308 -0.787 -0.807 -2.133 -0.807 -2.45 0 -0.146 0.025 -0.297 0.025 -0.449 0.025 -1.205 0.025 -2.178 -0.524 -4.982l-0.025 -0.025c-0.776 -2.279 -3.055 -4.18 -4.961 -5.36a9 9 0 0 0 -1.024 -0.625 11 11 0 0 0 -0.852 -0.424c-0.151 -0.076 -0.323 0.025 -0.323 0.176a10.3 10.3 0 0 0 0.061 1.906 3 3 0 0 0 -0.237 -0.151c-0.166 -0.126 -0.338 -0.272 -0.595 -0.429l-0.01 -0.01c-0.04 -0.025 -0.892 -0.787 -1.326 -1.266 -0.368 -0.434 -0.721 -0.887 -0.918 -1.296 -0.045 -0.086 -0.071 -0.182 -0.111 -0.252l0.005 -0.005a0.3 0.3 0 0 1 -0.035 -0.04s-0.005 0 -0.005 -0.005c-0.534 -0.56 -1.054 -1.074 -1.76 -1.558 -0.726 -0.499 -1.603 -0.928 -2.803 -1.301 0 0 -1.351 -0.272 -2.783 -0.373 -1.25 -0.101 -2.501 -0.202 -3.555 -0.6 -0.035 -0.01 -0.066 -0.02 -0.086 -0.015 -0.121 0.025 -0.176 0.055 -0.197 0.111s-0.035 0.05 -0.015 0.156c0.141 0.792 0.454 1.472 0.882 2.108 -0.847 0.434 -1.583 0.903 -2.208 1.376 -0.701 0.55 -1.25 1.104 -1.724 1.704 -0.101 0.126 -0.025 0.323 0.151 0.348 1.2 0.227 2.38 0.328 3.58 0.272 1.139 -0.045 2.284 -0.212 3.504 -0.464 0.045 0.03 0.65 0.413 0.928 0.565a9.4 9.4 0 0 0 4.427 1.079v0.005s1.407 -0.081 1.956 -0.131 1.659 -0.131 1.674 -0.136c0.025 0.01 1.114 0.751 1.356 0.892 0.459 2.582 1.775 4.518 2.682 5.576 0.227 0.277 0.424 0.474 0.575 0.625 0.146 0.151 0.247 0.252 0.303 0.277 0.575 0.454 1.15 0.978 1.75 1.603 0.595 0.62 1.165 1.336 1.785 2.077 0.176 0.348 0.348 0.726 0.524 1.124 0.197 0.398 0.368 0.792 0.539 1.114a15 15 0 0 0 -0.343 4.109 79 79 0 0 1 -0.65 -0.736c-0.474 -0.529 -0.978 -1.079 -1.427 -1.629 -0.126 -0.126 -0.328 -0.101 -0.403 0.05 -0.776 2.254 -0.928 4.205 -0.625 5.909s1.079 3.182 2.128 4.432c0 0 0.827 0.701 1.25 1.049 0.424 0.353 0.867 0.706 1.291 1.079a11 11 0 0 0 -0.842 1.578c-0.202 0.454 -0.373 0.953 -0.524 1.452 -0.076 0.308 -0.146 0.61 -0.207 0.918a7 7 0 0 0 -0.469 -0.837c-0.297 -0.529 -0.676 -1.003 -1.124 -1.503 -0.101 -0.126 -0.328 -0.076 -0.373 0.076a21 21 0 0 1 -1.205 3.182c-0.076 0.202 -0.176 0.373 -0.277 0.575a7 7 0 0 1 -0.272 0.524 14.8 14.8 0 0 0 -1.901 3.63 9.3 9.3 0 0 0 -0.529 3.277q-0.203 0.075 -0.398 0.151c-2.203 0.928 -3.958 2.304 -5.309 4.16 -0.474 0.751 -0.978 1.351 -1.603 1.775a4.6 4.6 0 0 1 -1.825 0.645c1.316 -1.442 2.213 -3.237 2.829 -5.203 0.05 -0.176 -0.121 -0.353 -0.303 -0.272 -0.575 0.247 -1.15 0.424 -1.755 0.575a16 16 0 0 1 -1.881 0.252h-0.04l0.035 0.151 0.005 0.061 -0.035 -0.217c-1.477 0.227 -2.904 0.625 -4.16 1.276a9.3 9.3 0 0 0 -1.926 1.331c-0.459 -0.494 -1.155 -0.892 -2.057 -1.205 -0.978 -0.348 -3.655 -0.751 -3.655 -0.751a24 24 0 0 1 -2.329 -0.252 20 20 0 0 1 -2.329 -0.449 0.232 0.232 0 0 0 -0.247 0.323c0.726 1.477 1.881 2.607 3.257 3.555q0.765 0.514 1.613 0.958l-0.464 -0.131a72 72 0 0 1 -3.776 -1.24c-2.239 -2.032 -4.503 -3.57 -6.817 -4.518 -0.166 -0.071 -0.333 -0.126 -0.499 -0.192a11.7 11.7 0 0 0 -0.353 -3.111 11.4 11.4 0 0 0 -1.603 -3.429s-0.928 -1.205 -1.351 -1.881a13.6 13.6 0 0 1 -1.15 -2.304c-0.076 -0.151 -0.328 -0.176 -0.403 -0.025a7.7 7.7 0 0 0 -0.817 2.158q-0.885 -2.3 -2.617 -4.291c1.951 -1.815 3.313 -3.776 4.008 -5.834q1.089 -3.161 0.151 -6.686c-0.025 -0.151 -0.202 -0.202 -0.303 -0.151 -0.55 0.252 -1.054 0.6 -1.528 1.024a7.6 7.6 0 0 0 -1.003 1.104 26 26 0 0 0 -0.171 -1.598c-0.05 -0.353 -0.126 -1.029 -0.126 -1.029a52 52 0 0 0 -0.328 -1.2 3.2 3.2 0 0 0 0.429 -0.751c0.101 -0.227 0.454 -0.832 0.464 -0.862 1.971 -1.25 3.797 -3.101 5.118 -5.123 0.252 -0.398 0.499 -0.802 0.726 -1.205 0.227 -0.424 0.424 -0.827 0.6 -1.225 0 0 0.661 -2.168 0.812 -3.076a9 9 0 0 1 1.013 -0.504c0.348 -0.176 0.721 -0.348 1.089 -0.57 0.539 0.035 1.039 0.015 1.563 -0.005 0.524 -0.025 1.029 -0.05 1.578 -0.025 1.175 0.05 2.304 -0.05 3.353 -0.353a7.4 7.4 0 0 0 2.929 -1.503c0.877 -0.776 1.578 -1.553 2.103 -2.355 0.499 -0.827 0.827 -1.704 0.903 -2.708 0.025 -0.151 -0.151 -0.277 -0.303 -0.227 -1.376 0.55 -2.854 0.877 -4.331 1.2 -0.499 0.101 -1.029 0.227 -1.553 0.353v0.005c-1.79 0.353 -3.086 1.074 -4.109 1.997 -1.013 0.938 -1.76 2.047 -2.4 3.257a16 16 0 0 1 -1.029 0.524q-0.355 0.153 -0.726 0.343c0.035 -0.237 0.071 -0.479 0.101 -0.716 0.05 -0.403 0.126 -0.852 0.176 -1.255 0.05 -0.176 -0.151 -0.303 -0.303 -0.222 -1.679 0.726 -2.627 1.528 -3.756 2.476 -0.328 0.277 -1.134 0.948 -1.134 0.948l0.005 0.005c-2.773 2.652 -2.829 6.494 -2.854 9.212v0.615c-0.257 0.323 -0.358 0.58 -0.474 0.812 -0.04 0.121 -0.091 0.242 -0.166 0.378a41 41 0 0 0 -0.408 -1.255c-0.328 -0.852 -0.65 -1.629 -1.079 -2.455 -0.076 -0.146 -0.303 -0.176 -0.378 -0.025 -0.903 1.452 -1.326 2.657 -1.805 4.034 -0.176 0.449 -0.55 1.477 -0.55 1.477 -1.003 3.807 0.701 7.462 1.876 9.988 0.061 0.161 0.136 0.318 0.176 0.398v0.655c0 0.116 0 0.222 -0.01 0.454a15 15 0 0 0 -0.787 -0.655 35 35 0 0 0 -1.351 -0.978c-0.151 -0.101 -0.328 0 -0.353 0.176 -0.126 2.551 0.101 4.805 0.726 6.686 0.65 1.876 1.724 3.383 3.282 4.457 1.225 0.852 2.254 1.8 3.081 2.854 0.151 0.227 0.303 0.424 0.454 0.65 0.025 0.04 0.055 0.086 0.081 0.131 0.025 0.071 0.045 0.141 0.071 0.212a15 15 0 0 0 -2.012 0.055c-0.176 0 -0.272 0.227 -0.151 0.378 0.575 0.6 1.124 1.276 1.704 2.027 0.575 0.751 1.704 2.405 1.704 2.405 1.301 1.528 2.854 2.405 4.583 2.803 1.709 0.373 3.59 0.303 5.571 -0.04l6.252 1.704c-1.25 0.671 -2.748 1.195 -4.487 1.593 -0.076 0.025 -0.151 0.151 -0.151 0.227 0 0.176 0 0.373 0.076 0.55q0.075 0.296 0.378 0.6a0.5 0.5 0 0 0 0.176 0.076 21 21 0 0 0 2.43 -0.575c0.827 -0.227 2.481 -0.903 2.481 -0.903 0.449 -0.252 1.104 -0.277 1.901 -0.303 0.403 -0.025 0.827 -0.05 1.331 -0.101q0.537 -0.061 1.044 -0.151c0.025 0.025 2.41 0.776 3.615 1.029 1.175 0.272 2.38 0.449 3.63 0.499 0.05 0 0.146 -0.055 0.176 -0.101 0.202 -0.272 0.303 -0.575 0.328 -0.852a1.6 1.6 0 0 0 -0.176 -0.877c-0.025 -0.05 -0.126 -0.101 -0.176 -0.121 -0.726 -0.076 -1.477 -0.151 -2.229 -0.277 -0.63 -0.101 -1.24 -0.232 -1.85 -0.388a10.5 10.5 0 0 0 2.324 -1.563c0.378 0 0.691 -0.025 1.003 -0.05l1.018 -0.076c2.022 0.373 3.918 0.398 5.667 -0.025 1.755 -0.429 3.353 -1.276 4.81 -2.607 1.376 -1.276 2.43 -2.38 3.156 -3.328 0.751 -0.953 1.175 -1.724 1.376 -2.38a0.24 0.24 0 0 0 -0.272 -0.277c-0.413 0.091 -0.827 0.156 -1.235 0.217a9.4 9.4 0 0 0 0.822 -1.674c1.074 -0.424 2.123 -0.928 3.146 -2.052 1.003 -1.099 2.793 -5.208 2.955 -5.708 0.161 -0.504 0.474 -3.106 0.55 -4.709 0.025 -0.323 0.025 -0.625 0.025 -0.928 0 -0.252 0 -0.529 -0.025 -0.782M30.751 5.614c-1.029 0.045 -2.052 -0.04 -3.096 -0.212a9.7 9.7 0 0 1 1.392 -1.311 16 16 0 0 1 2.203 -1.356c0.035 0.04 0.565 0.666 0.822 0.933 -0.983 0.237 -2.773 0.923 -2.773 0.923 -0.126 0.05 -0.176 0.176 -0.126 0.303 0.025 0.101 0.176 0.176 0.277 0.126 0 0 2.274 -0.882 3 -0.968a33 33 0 0 0 1.361 1.21c-1.049 0.197 -2.062 0.328 -3.061 0.353m10.82 1.049c-0.575 0.05 -1.15 0.101 -1.654 0.126 -1.629 0.05 -3.131 -0.303 -4.482 -1.029 -0.277 -0.126 -2.672 -1.593 -3.756 -3.176 -0.03 -0.04 -0.126 -0.146 -0.287 -0.388 -0.161 -0.252 -0.55 -0.666 -0.776 -1.659 1.029 0.323 2.163 0.434 3.292 0.519 0.928 0.076 1.75 0.081 2.703 0.353 0.953 0.267 2.007 0.776 2.682 1.25 0.661 0.439 1.18 0.953 1.694 1.492 0.182 0.494 0.595 1.074 1.059 1.588 0.272 0.308 0.565 0.59 0.817 0.832 -0.439 0.035 -0.872 0.071 -1.291 0.091m8.687 8.99c-0.595 -0.62 -1.805 -1.654 -1.805 -1.654 -0.025 -0.025 -0.6 -0.575 -0.827 -0.827 -1.069 -1.286 -2.808 -3.908 -2.718 -7.417 0.166 0.081 0.338 0.171 0.534 0.282 0.303 0.146 0.65 0.348 1.003 0.575 1.82 1.145 4.008 2.99 4.77 5.133l-0.015 0.005c0.575 2.753 0.55 3.706 0.529 4.881v0.449c0 0.081 0.025 0.212 0.066 0.373a24 24 0 0 0 -1.538 -1.8M17.708 4.343c0.978 -0.877 2.229 -1.553 3.928 -1.901 0.524 -0.126 1.029 -0.222 1.553 -0.348 1.376 -0.297 2.733 -0.6 4.044 -1.074a5.6 5.6 0 0 1 -0.792 2.123c-0.499 0.776 -1.18 1.528 -2.027 2.279a7.4 7.4 0 0 1 -2.753 1.402c-1.003 0.277 -2.077 0.373 -3.207 0.348 -0.575 -0.05 -1.099 -0.025 -1.629 0 -0.413 0.02 -0.832 0.04 -1.255 0.02 0.6 -1.059 1.255 -2.032 2.138 -2.849M5.96 18.592c0.025 -2.677 0.05 -6.459 2.803 -8.99 0.378 -0.303 0.701 -0.575 1.029 -0.827 1.013 -0.877 1.886 -1.603 3.267 -2.259l-0.111 0.857c-0.176 1.276 -0.353 2.526 -1.003 4.23 -0.151 0.403 -0.353 0.776 -0.575 1.175 -0.202 0.403 -0.449 0.802 -0.701 1.175 -1.235 1.876 -2.899 3.61 -4.709 4.805zm16.856 34.356c-1.195 -0.812 -2.203 -1.77 -2.889 -2.975 0.635 0.146 1.266 0.272 1.911 0.373 0.766 0.121 1.533 0.197 2.329 0.247 1.402 0.151 2.607 0.378 3.555 0.701 0.837 0.292 1.472 0.671 1.881 1.114 -0.323 0.328 -0.63 0.681 -0.913 1.074a54 54 0 0 0 -1.361 -0.565c-0.161 -0.318 -0.429 -0.666 -0.736 -0.973 -0.05 -0.076 -0.368 -0.434 -0.418 -0.434 -0.096 -0.061 -0.212 -0.035 -0.308 0.035 -0.066 0.086 -0.05 0.212 0.005 0.292v0.005s0.63 0.655 0.731 0.782a85 85 0 0 1 -1.104 -0.444c-0.267 -0.55 -0.58 -0.958 -0.882 -1.185 -0.076 -0.05 -0.151 -0.101 -0.227 -0.126q-0.113 -0.076 -0.227 -0.076c-0.126 -0.025 -0.227 0.076 -0.252 0.202 -0.025 0.101 0.252 0.247 0.303 0.272s0.464 0.393 0.63 0.645c-0.923 -0.378 -1.871 -0.766 -2.884 -1.17a0.227 0.227 0 0 0 -0.303 0.121c-0.05 0.101 0.025 0.252 0.126 0.277 0.913 0.378 1.891 0.782 2.899 1.185l-0.197 0.015c-0.272 0.025 -0.575 0 -0.897 -0.025 -0.126 0 -0.227 0.076 -0.227 0.202 -0.025 0.126 0.076 0.227 0.202 0.252 0.328 0.025 0.65 0.025 0.953 0.025 0.318 -0.025 0.635 -0.076 0.908 -0.171 0.403 0.161 0.817 0.328 1.23 0.489 -0.146 0.05 -0.303 0.096 -0.459 0.131 -0.328 0.05 -0.676 0.101 -1.003 0.126 -0.126 0 -0.222 0.101 -0.202 0.227 0 0.126 0.101 0.227 0.227 0.227a8 8 0 0 0 1.079 -0.151c0.323 -0.071 0.625 -0.187 0.928 -0.318q0.614 0.256 1.235 0.504a6 6 0 0 1 -1.013 1.321l-0.62 -0.166c-1.457 -0.59 -2.818 -1.25 -4.008 -2.067M5.69 25.502l0.025 -0.025c0.378 -0.6 0.802 -1.079 1.225 -1.477 0.378 -0.338 0.776 -0.6 1.19 -0.827 0.524 2.173 0.459 4.21 -0.192 6.161 -0.696 2.007 -2.002 3.892 -3.903 5.657 -0.126 -0.141 -0.262 -0.277 -0.393 -0.418q0.516 -0.841 1.008 -1.78h0.005c0.272 -0.176 0.272 -0.176 0.303 -0.176 0.328 -0.227 0.676 -0.429 1.003 -0.625a0.24 0.24 0 0 0 0.076 -0.303c-0.076 -0.096 -0.202 -0.151 -0.303 -0.076 -0.252 0.151 -0.474 0.287 -0.696 0.424 0.227 -0.454 0.444 -0.923 0.661 -1.412 0.222 -0.171 0.439 -0.318 0.635 -0.439 0.227 -0.101 0.424 -0.202 0.625 -0.247 0.126 -0.025 0.202 -0.151 0.176 -0.252a0.23 0.23 0 0 0 -0.277 -0.176 3 3 0 0 0 -0.726 0.303c-0.035 0.015 -0.076 0.045 -0.111 0.066 0.146 -0.343 0.287 -0.701 0.424 -1.059 0 -0.005 0.01 -0.005 0.01 -0.01 0.126 -0.146 0.272 -0.272 0.474 -0.424 0.227 -0.126 0.449 -0.252 0.726 -0.373 0.126 -0.05 0.151 -0.202 0.101 -0.303 -0.05 -0.126 -0.176 -0.151 -0.277 -0.101a4.5 4.5 0 0 0 -0.741 0.403q0.182 -0.538 0.348 -1.069c0.015 -0.01 0.03 -0.02 0.045 -0.04 0.126 -0.151 0.252 -0.297 0.378 -0.403 0.151 -0.126 0.272 -0.227 0.449 -0.323 0.101 -0.05 0.126 -0.176 0.076 -0.303 -0.05 -0.101 -0.176 -0.126 -0.303 -0.076a4 4 0 0 0 -0.358 0.242q0.107 -0.35 0.207 -0.691a0.227 0.227 0 0 0 -0.176 -0.272c-0.101 -0.05 -0.227 0.025 -0.277 0.151a24 24 0 0 1 -0.424 1.503c-0.176 0.499 -0.328 0.978 -0.499 1.452 -0.862 2.36 -1.866 4.382 -2.899 6.066l-0.182 -0.182c-0.015 -0.015 0 -1.099 0.025 -1.523 0.368 -0.62 0.711 -1.402 1.054 -2.183 0.222 -0.519 0.701 -1.528 0.701 -1.528 0.61 -1.165 0.792 -2.249 0.787 -3.333m-4.613 -3.207c0.207 -0.499 0.383 -0.998 0.534 -1.452 0.434 -1.235 0.827 -2.324 1.563 -3.59a20 20 0 0 1 0.867 2.037c0.303 0.852 0.6 1.805 0.903 2.955h0.005c0.025 0.338 0.076 0.661 0.121 0.978 0.217 1.855 0.418 3.555 -0.534 5.385 0 0 -0.499 1.054 -0.726 1.578 -0.287 0.655 -0.57 1.286 -0.857 1.825 -0.005 -0.015 -2.839 -6.071 -1.876 -9.716M4.46 42.981c-1.477 -1.003 -2.481 -2.43 -3.106 -4.23 -0.57 -1.729 -0.797 -3.771 -0.716 -6.106 0.338 0.237 0.671 0.479 0.988 0.721 0.424 0.328 0.827 0.676 1.205 1.003 1.901 1.805 3.202 3.807 3.933 6.01 0.005 0.04 0.025 0.071 0.05 0.096a9.4 9.4 0 0 0 -0.05 1.376c0.035 1.175 0.262 2.45 0.65 3.827a14 14 0 0 0 -2.955 -2.697m2.758 -1.155c-0.045 -1.402 0.187 -2.642 0.716 -3.741 0.303 0.696 0.64 1.331 1.013 1.916 0.424 0.701 0.903 1.326 1.376 1.901a11.7 11.7 0 0 1 1.528 3.282c0.252 0.993 0.333 1.921 0.323 2.844q-0.613 -0.212 -1.225 -0.363c-0.076 -0.161 -0.141 -0.323 -0.212 -0.484 0.096 -0.187 -0.015 0.055 0.01 0.005 0.252 -0.6 0.499 -1.23 0.726 -1.78 0.05 -0.126 -0.025 -0.252 -0.126 -0.303 -0.126 -0.025 -0.252 0.025 -0.303 0.126 -0.192 0.494 -0.363 0.943 -0.55 1.382a42 42 0 0 1 -0.504 -1.311c0.101 -0.217 0.202 -0.424 0.303 -0.645 0.151 -0.303 0.272 -0.625 0.403 -0.903 0.05 -0.101 0 -0.252 -0.101 -0.277 -0.126 -0.045 -0.252 0 -0.303 0.101 -0.126 0.303 -0.277 0.6 -0.398 0.903 -0.035 0.081 -0.076 0.156 -0.111 0.237 -0.045 -0.136 -0.096 -0.272 -0.141 -0.413a24 24 0 0 1 -0.227 -0.716 0.2 0.2 0 0 0 0.05 -0.081c0.025 -0.202 0.076 -0.403 0.146 -0.63 0.101 -0.202 0.202 -0.398 0.353 -0.6 0.076 -0.076 0.076 -0.227 -0.025 -0.303s-0.222 -0.076 -0.297 0.025a2.5 2.5 0 0 0 -0.429 0.726c-0.015 0.03 -0.02 0.061 -0.03 0.091a30 30 0 0 1 -0.494 -1.921c-0.025 -0.126 -0.151 -0.202 -0.252 -0.151 -0.126 0.025 -0.202 0.126 -0.176 0.247 0.146 0.686 0.328 1.371 0.524 2.047a5 5 0 0 1 -0.797 -0.545c-0.101 -0.076 -0.227 -0.05 -0.303 0.05 -0.101 0.076 -0.076 0.222 0.025 0.303 0.328 0.272 0.701 0.524 1.049 0.676q0.108 0.031 0.187 0.071 0.13 0.416 0.267 0.832l0.182 0.534c-0.096 -0.05 -0.192 -0.091 -0.282 -0.136a6 6 0 0 0 -0.802 -0.378c-0.126 -0.05 -0.252 0 -0.297 0.101 -0.025 0.126 0.025 0.252 0.121 0.303 0.277 0.101 0.524 0.227 0.776 0.353 0.212 0.116 0.429 0.237 0.686 0.333q0.361 0.997 0.807 1.987a15 15 0 0 0 -1.916 -0.287 16 16 0 0 0 -0.272 -0.469c-0.61 -1.83 -0.953 -3.469 -0.998 -4.936m12.071 12.55c-1.951 0.378 -3.807 0.449 -5.461 0.05 -1.639 -0.373 -3.111 -1.195 -4.331 -2.627h0.005c-0.575 -0.827 -1.129 -1.654 -1.704 -2.405a27 27 0 0 0 -1.432 -1.729c2.269 -0.141 4.452 0.237 6.59 1.129 2.279 0.953 4.533 2.455 6.736 4.482 0.025 0 2.632 0.928 3.908 1.306q1.497 0.439 2.995 0.832c0.136 0.061 0.272 0.111 0.413 0.166a8 8 0 0 1 -0.913 0.65zm16.528 2.904a31 31 0 0 0 2.128 0.287c0.081 0.182 0.101 0.348 0.101 0.514 -0.02 0.182 -0.091 0.353 -0.187 0.545a21.4 21.4 0 0 1 -3.444 -0.469 34 34 0 0 1 -2.899 -0.776 13 13 0 0 0 1.946 -0.64 0.3 0.3 0 0 0 0.101 0.091c0.751 0.171 1.497 0.323 2.254 0.449m0.398 -2.859c-1.578 1.503 -3.731 2.531 -6.59 2.854 -0.449 0.05 -0.903 0.05 -1.301 0.076 -0.852 0.025 -1.528 0.076 -2.103 0.378l0.005 0.005c-0.797 0.323 -1.588 0.62 -2.385 0.847 -0.741 0.212 -1.497 0.403 -2.259 0.529 -0.086 -0.116 -0.156 -0.232 -0.171 -0.328a2 2 0 0 1 -0.061 -0.247c1.845 -0.444 3.434 -1.029 4.719 -1.78 1.261 -0.736 2.218 -1.654 2.829 -2.773a0.18 0.18 0 0 0 0.126 -0.131c0.015 -0.03 0.015 -0.071 0.015 -0.106a8.8 8.8 0 0 1 3.04 -2.597c1.2 -0.625 2.556 -0.998 4.008 -1.225a9.3 9.3 0 0 0 1.901 -0.252c0.494 -0.111 0.953 -0.262 1.407 -0.434 -0.681 2.017 -1.689 3.807 -3.182 5.183m16.729 -32.5a14.2 14.2 0 0 1 0.797 -3.333l1.351 -3.166c1.533 2.637 2.385 5.163 2.481 7.523 0.116 2.34 -0.499 4.518 -1.891 6.565 -0.066 -0.202 -0.131 -0.403 -0.212 -0.6 -0.449 -1.2 -1.15 -2.395 -2.218 -3.57l0.015 -0.01 -0.333 -0.378a13 13 0 0 1 0.01 -3.03m0.045 11.193c-0.393 -0.323 -0.792 -0.645 -1.185 -0.988 -1.024 -1.2 -1.745 -2.597 -2.047 -4.22 -0.257 -1.553 -0.136 -3.313 0.504 -5.309 0.383 0.454 0.787 0.903 1.2 1.356q0.536 0.591 1.049 1.19c0.02 0.04 0.05 0.071 0.081 0.091q0.158 0.188 0.323 0.368v0.025c1.024 1.124 1.704 2.279 2.153 3.459 0.408 1.109 0.63 2.239 0.711 3.368 -0.222 0.197 -0.429 0.408 -0.625 0.615a57 57 0 0 1 -1.008 -1.664c0.126 -0.328 0.222 -0.867 0.267 -1.523 0 -0.176 0.05 -0.948 0.05 -0.973a0.226 0.226 0 0 0 -0.227 -0.227 0.225 0.225 0 0 0 -0.222 0.227s-0.025 0.802 -0.05 0.928a9 9 0 0 1 -0.131 1.018 88 88 0 0 1 -1.013 -1.886c0.081 -0.217 0.151 -0.524 0.197 -0.887 0.076 -0.424 0.126 -0.928 0.146 -1.402 0 -0.101 -0.076 -0.227 -0.202 -0.227s-0.227 0.076 -0.252 0.202a22 22 0 0 1 -0.126 1.376c-0.025 0.116 -0.045 0.232 -0.066 0.333a53 53 0 0 1 -1.336 -3.015 0.22 0.22 0 0 0 -0.297 -0.126c-0.101 0.05 -0.151 0.176 -0.101 0.277a46 46 0 0 0 1.382 3.131 4 4 0 0 1 -0.484 -0.247c-0.303 -0.176 -0.625 -0.429 -0.948 -0.676 -0.101 -0.076 -0.227 -0.076 -0.303 0.025s-0.076 0.227 0.025 0.303c0.323 0.272 0.676 0.524 1.003 0.751 0.328 0.187 0.661 0.328 0.988 0.408 0.061 0.121 0.671 1.306 0.928 1.765 -0.182 -0.086 -1.296 -0.701 -1.669 -0.973 -0.101 -0.05 -0.227 -0.025 -0.303 0.076s-0.05 0.227 0.05 0.303c0.403 0.272 1.901 1.089 2.289 1.255q0.523 0.899 1.099 1.79 -0.311 0.362 -0.585 0.746a46 46 0 0 0 -1.266 -1.044m-0.161 13.543q-0.303 0.8 -1.165 1.911c-0.726 0.903 -1.729 1.982 -3.106 3.257s-2.929 2.103 -4.608 2.501c-1.704 0.403 -3.529 0.378 -5.511 0 0 0 0.474 -0.267 0.751 -0.449 0.701 -0.474 1.255 -1.124 1.755 -1.901l-0.015 -0.01c1.301 -1.77 3 -3.096 5.123 -3.968a16 16 0 0 1 1.276 -0.479c0.429 -0.121 0.903 -0.252 1.376 -0.348 0.005 -0.01 2.889 -0.287 4.124 -0.514m-1.487 -0.272a0.2 0.2 0 0 0 -0.03 0.066q-0.953 0.12 -1.891 0.187a14 14 0 0 0 0.247 -0.58c0.126 -0.328 0.403 -1.084 0.413 -1.124 0.262 -0.091 0.534 -0.267 0.787 -0.479 0.303 -0.252 0.6 -0.55 0.903 -0.877a0.21 0.21 0 0 0 -0.025 -0.303c-0.076 -0.101 -0.227 -0.076 -0.303 0a6 6 0 0 1 -0.852 0.827 2 2 0 0 1 -0.338 0.252c0.161 -0.555 0.292 -1.124 0.403 -1.704 0.161 -0.081 0.348 -0.207 0.529 -0.353a8 8 0 0 0 0.701 -0.701c0.076 -0.101 0.076 -0.222 -0.025 -0.328a0.207 0.207 0 0 0 -0.303 0.025 12 12 0 0 1 -0.676 0.65 2 2 0 0 1 -0.121 0.111q0.219 -1.286 0.318 -2.642c0 -0.126 -0.076 -0.227 -0.197 -0.227 -0.126 -0.025 -0.227 0.076 -0.252 0.202a25 25 0 0 1 -0.313 2.657 3 3 0 0 1 -0.187 -0.227 11 11 0 0 1 -0.373 -0.751c-0.025 -0.126 -0.151 -0.176 -0.272 -0.151 -0.126 0.05 -0.176 0.176 -0.126 0.303 0.126 0.328 0.252 0.6 0.429 0.852 0.121 0.202 0.277 0.363 0.439 0.499q-0.173 0.872 -0.413 1.704c-0.05 -0.076 -0.106 -0.156 -0.151 -0.252a8 8 0 0 1 -0.474 -1.104c-0.05 -0.101 -0.176 -0.176 -0.303 -0.126 -0.101 0.05 -0.176 0.176 -0.126 0.272 0.176 0.499 0.353 0.852 0.499 1.155 0.126 0.257 0.257 0.434 0.383 0.595 -0.01 0.035 -0.408 1.134 -0.418 1.165a10 10 0 0 1 -0.514 -0.756c-0.025 -0.076 -0.151 -0.328 -0.176 -0.403a0.25 0.25 0 0 0 -0.272 -0.126c-0.126 0.05 -0.176 0.176 -0.126 0.303 0.025 0.05 0.151 0.348 0.202 0.424a6.5 6.5 0 0 0 0.691 1.013l-0.111 0.232c-0.015 0 -2.022 0.514 -2.178 0.565a9 9 0 0 1 0.504 -2.965c0.373 -1.104 0.978 -2.279 1.855 -3.529 0 0 0.499 -0.978 0.575 -1.175 0.418 -0.887 0.782 -1.855 1.099 -2.849 0.318 0.368 0.59 0.746 0.827 1.145 0.303 0.474 0.555 0.973 0.726 1.452 0.918 2.521 0.368 5.052 -0.983 7.079m7.588 -14.173c-0.076 1.578 -0.353 3.429 -0.575 4.654 0 0 -1.855 4.437 -2.829 5.486 -0.862 0.923 -1.739 1.407 -2.642 1.795a7.9 7.9 0 0 0 -0.131 -4.886c0.005 -0.015 0.197 -1.069 0.318 -1.568 0.151 -0.474 0.303 -0.953 0.499 -1.402a10.2 10.2 0 0 1 2.516 -3.514 0.19 0.19 0 0 0 0.151 -0.131 12.5 12.5 0 0 1 2.703 -1.795c0.005 0.146 0.015 0.297 0.015 0.459 -0.005 0.277 -0.025 0.58 -0.025 0.903M3.232 29.835c0.05 -0.555 0.066 -1.165 0.055 -1.805 0.408 -0.308 0.666 -0.792 0.923 -1.301 0 0 0.252 -0.504 0.373 -0.701a0.24 0.24 0 0 0 -0.05 -0.328c-0.101 -0.05 -0.247 -0.025 -0.303 0.076 -0.176 0.227 -0.303 0.499 -0.424 0.751 -0.166 0.333 -0.333 0.65 -0.534 0.903 -0.02 -0.595 -0.05 -1.22 -0.086 -1.855 0.383 -0.212 0.59 -0.58 0.802 -0.948 0.126 -0.202 0.227 -0.429 0.373 -0.6 0.076 -0.076 0.076 -0.227 -0.025 -0.303s-0.222 -0.076 -0.303 0.025a3.4 3.4 0 0 0 -0.424 0.65c-0.141 0.247 -0.272 0.484 -0.454 0.65a84 84 0 0 1 -0.091 -1.603c0.368 -0.303 0.721 -1.326 0.847 -1.523 0.076 -0.101 0.05 -0.222 -0.025 -0.303a0.23 0.23 0 0 0 -0.323 0.05c-0.176 0.227 -0.439 1.008 -0.524 1.15 -0.04 -1.124 -0.035 -2.224 0.071 -3.227a0.214 0.214 0 0 0 -0.202 -0.252c-0.126 -0.025 -0.227 0.076 -0.252 0.202 -0.096 0.948 -0.101 1.961 -0.071 3.005 -0.071 -0.106 -0.378 -0.65 -0.434 -0.726 -0.05 -0.101 -0.176 -0.151 -0.297 -0.101 -0.101 0.076 -0.151 0.202 -0.101 0.303 0.05 0.081 0.64 1.018 0.857 1.255q0.036 0.801 0.081 1.603c-0.353 -0.308 -0.862 -1.079 -0.862 -1.079 -0.05 -0.101 -0.176 -0.146 -0.303 -0.101 -0.101 0.025 -0.176 0.176 -0.126 0.272 0.247 0.615 0.852 1.134 1.326 1.508 0.04 0.666 0.076 1.316 0.096 1.936a6 6 0 0 1 -0.489 -0.59c-0.252 -0.328 -0.429 -0.827 -0.529 -0.903s-0.328 0.05 -0.328 0.076c-0.101 0.176 0.151 0.625 0.499 1.104 0.282 0.373 0.63 0.771 0.857 0.943 0.005 0.615 -0.005 1.2 -0.055 1.734 0 0.126 0.076 0.227 0.202 0.252a0.246 0.246 0 0 0 0.252 -0.202m2.435 11.793a4 4 0 0 0 0.071 -1.069c0 -0.373 -0.025 -0.726 -0.076 -1.104 0 -0.126 -0.126 -0.202 -0.247 -0.202 -0.101 0.025 -0.202 0.126 -0.176 0.252l0.076 1.054q-0.001 0.175 -0.01 0.343a89 89 0 0 0 -0.615 -1.145c0.01 -0.691 -0.126 -1.613 -0.202 -2.279v-0.025c-0.025 -0.126 -0.151 -0.202 -0.252 -0.202 -0.126 0.025 -0.222 0.126 -0.202 0.252v0.025c0.055 0.393 0.121 0.862 0.161 1.311 -0.02 -0.035 -0.04 -0.076 -0.061 -0.111 -0.156 -0.297 -0.328 -0.6 -0.489 -0.897 0.005 -0.02 -0.061 -0.731 -0.111 -1.079 -0.025 -0.378 -0.076 -0.726 -0.101 -1.079 0 -0.126 -0.101 -0.227 -0.227 -0.227s-0.227 0.126 -0.227 0.227v0.025c0.025 0.353 0.076 0.726 0.126 1.104q-0.001 0.023 0.005 0.045 -0.62 -1.12 -1.255 -2.249c-0.076 -0.126 -0.202 -0.151 -0.297 -0.101 -0.126 0.076 -0.151 0.197 -0.101 0.297q0.726 1.277 1.422 2.531a23 23 0 0 0 -1.195 -0.454c-0.101 -0.05 -0.222 0 -0.277 0.126 -0.05 0.126 0.025 0.252 0.126 0.277 0.303 0.101 0.625 0.252 0.948 0.378 0.252 0.106 0.494 0.197 0.741 0.292 0.176 0.328 0.363 0.661 0.539 0.983 0.086 0.161 0.171 0.328 0.262 0.489a6 6 0 0 1 -0.434 -0.217c-0.378 -0.197 -0.726 -0.373 -1.054 -0.474 -0.126 -0.05 -0.252 0.025 -0.303 0.126 -0.025 0.126 0.05 0.252 0.146 0.277 0.303 0.101 0.65 0.272 1.003 0.449 0.313 0.192 0.645 0.358 0.963 0.459l0.605 1.155 -0.035 -0.015a8.7 8.7 0 0 1 -1.528 -0.827c-0.101 -0.076 -0.252 -0.05 -0.303 0.05 -0.076 0.101 -0.05 0.222 0.05 0.297 0.55 0.378 1.079 0.681 1.629 0.903 0.101 0.025 0.202 0.076 0.303 0.101 0.061 0.025 0.116 0.05 0.176 0.066 0.202 0.398 0.408 0.792 0.6 1.185 0.05 0.126 0.176 0.151 0.303 0.101 0.101 -0.05 0.151 -0.176 0.101 -0.297 -0.192 -0.373 -0.388 -0.751 -0.58 -1.129M7.086 19.09c-0.126 0.101 -0.176 0.252 -0.176 0.403s0.05 0.303 0.176 0.403a0.54 0.54 0 0 0 0.242 0.121 0.46 0.46 0 0 0 0.327 0 0.54 0.54 0 0 0 0.237 -0.121c0.126 -0.101 0.176 -0.252 0.176 -0.403s-0.05 -0.303 -0.176 -0.403c-0.101 -0.101 -0.252 -0.176 -0.403 -0.176s-0.303 0.076 -0.403 0.176m30.55 31.276a105 105 0 0 1 -2.899 1.901 4.1 4.1 0 0 1 0.419 -1.226c0.076 -0.101 0.025 -0.227 -0.076 -0.297 -0.101 -0.05 -0.247 -0.025 -0.303 0.101 -0.176 0.303 -0.303 0.6 -0.373 0.903 -0.091 0.277 -0.136 0.55 -0.146 0.827a66 66 0 0 1 -1.099 0.681c0.045 -0.267 0.146 -0.59 0.297 -0.953 0.025 -0.101 0.076 -0.202 0.146 -0.328a1.4 1.4 0 0 1 0.176 -0.348c0.05 -0.126 0 -0.252 -0.101 -0.303 -0.101 -0.076 -0.247 -0.025 -0.303 0.076v0.025c-0.076 0.126 -0.126 0.252 -0.176 0.348 -0.05 0.101 -0.101 0.227 -0.176 0.348 -0.217 0.545 -0.338 1.029 -0.328 1.407q-0.652 0.387 -1.296 0.766c0.005 -0.197 0.03 -0.418 0.096 -0.671a7 7 0 0 1 0.655 -1.477c0.05 -0.101 0 -0.227 -0.101 -0.303 -0.101 -0.05 -0.227 -0.025 -0.303 0.101 -0.328 0.6 -0.555 1.104 -0.676 1.553a2.9 2.9 0 0 0 -0.111 1.049c-0.303 0.176 -0.6 0.343 -0.897 0.509 0.045 -0.247 0.091 -0.499 0.156 -0.756 0.101 -0.373 0.252 -0.751 0.403 -1.15 0.05 -0.101 0 -0.227 -0.101 -0.277 -0.126 -0.05 -0.252 0 -0.303 0.101a9 9 0 0 0 -0.424 1.225c-0.091 0.368 -0.156 0.736 -0.212 1.124q-0.855 0.469 -1.694 0.908c-0.126 0.05 -0.151 0.171 -0.101 0.297 0.05 0.101 0.176 0.151 0.297 0.076a71 71 0 0 0 1.76 -0.928c0.363 0.086 0.731 0.156 1.119 0.202 0.403 0.076 0.827 0.101 1.25 0.076a0.225 0.225 0 0 0 0.227 -0.222c0 -0.101 -0.101 -0.202 -0.227 -0.202a9.4 9.4 0 0 1 -1.79 -0.172q0.408 -0.228 0.817 -0.464a6.6 6.6 0 0 0 1.124 0.156c0.403 0.025 0.827 0 1.276 -0.025 0.126 -0.025 0.202 -0.126 0.202 -0.252s-0.126 -0.202 -0.222 -0.202c-0.429 0.05 -0.852 0.05 -1.255 0.025q-0.275 0.001 -0.55 -0.035c0.373 -0.222 0.751 -0.444 1.124 -0.676 0.358 0.086 0.751 0.111 1.129 0.131 0.429 0.025 0.827 0 1.225 0a0.222 0.222 0 1 0 0 -0.444 10 10 0 0 1 -1.2 0c-0.202 0 -0.393 -0.015 -0.58 -0.035 0.343 -0.212 0.691 -0.424 1.034 -0.64l1.699 0.05c0.126 0 0.227 -0.101 0.227 -0.227s-0.101 -0.222 -0.202 -0.222l-1.044 -0.03c0.877 -0.565 1.76 -1.145 2.647 -1.75 0.101 -0.076 0.126 -0.202 0.05 -0.303 -0.04 -0.101 -0.192 -0.126 -0.292 -0.05m16.129 -26.319c-0.076 -0.101 -0.227 -0.101 -0.328 -0.05 -0.101 0.076 -0.101 0.227 -0.02 0.323 0.247 0.353 0.55 0.676 0.822 0.953 0.272 0.272 0.565 0.499 0.877 0.701l0.05 1.276c0 0.126 0.101 0.227 0.227 0.202 0.126 0 0.222 -0.101 0.202 -0.227l-0.05 -1.266c0.061 -0.055 0.121 -0.106 0.171 -0.161l0.252 -0.252a9.2 9.2 0 0 0 1.124 -1.699c0.05 -0.126 0.025 -0.252 -0.101 -0.303 -0.101 -0.076 -0.222 -0.025 -0.272 0.076 -0.348 0.676 -1.17 1.719 -1.2 1.755l-0.076 -1.931c0.257 -0.242 0.499 -0.55 0.696 -0.882 0.227 -0.378 0.429 -0.802 0.6 -1.225 0.05 -0.126 -0.025 -0.252 -0.126 -0.303 -0.126 -0.05 -0.252 0.025 -0.303 0.126a6.6 6.6 0 0 1 -0.55 1.175 3 3 0 0 1 -0.348 0.489l-0.055 -1.508c0.479 -0.459 0.691 -1.16 0.903 -1.886v-0.025a0.23 0.23 0 0 0 -0.151 -0.272c-0.126 -0.025 -0.247 0.05 -0.272 0.146v0.025c-0.141 0.479 -0.287 0.958 -0.504 1.336l-0.096 -2.461c-0.025 -0.126 -0.126 -0.227 -0.247 -0.227 -0.126 0 -0.202 0.101 -0.202 0.227l0.111 2.723c-0.015 -0.005 -0.64 -0.444 -0.938 -0.766 -0.076 -0.101 -0.227 -0.101 -0.328 -0.025a0.264 0.264 0 0 0 0 0.328c0.328 0.353 0.676 0.65 1.003 0.827 0.076 0.05 0.257 0.146 0.287 0.151l0.066 1.654c-0.045 -0.015 -0.091 -0.035 -0.126 -0.05 -0.353 -0.176 -0.701 -0.499 -1.054 -0.923 -0.076 -0.081 -0.227 -0.101 -0.303 -0.025 -0.101 0.076 -0.126 0.227 -0.05 0.323 0.403 0.454 0.776 0.827 1.205 1.029 0.076 0.025 0.146 0.076 0.247 0.101l0.101 0.03 0.076 1.855a5 5 0 0 1 -0.524 -0.464c-0.297 -0.247 -0.55 -0.57 -0.797 -0.897m4.029 11.092c-0.348 0.328 -1.17 0.857 -1.175 0.862 0.378 -0.877 0.766 -1.78 1.175 -2.738 0.025 -0.101 -0.025 -0.227 -0.126 -0.272 -0.121 -0.05 -0.252 0 -0.297 0.101 -0.353 0.827 -0.726 1.699 -1.109 2.602a7 7 0 0 1 -0.192 -1.15c0 -0.101 -0.025 -0.726 -0.025 -0.751a0.226 0.226 0 0 0 -0.227 -0.227c-0.101 0 -0.202 0.101 -0.202 0.227 0 0.025 0 0.65 0.025 0.776 0.045 0.595 0.141 1.195 0.353 1.755 -0.227 0.524 -0.454 1.059 -0.686 1.593a4.6 4.6 0 0 1 -0.519 -1.271c-0.025 -0.101 -0.05 -0.227 -0.076 -0.323 0 -0.101 -0.025 -0.227 -0.025 -0.328 0 -0.126 -0.126 -0.227 -0.252 -0.227 -0.101 0 -0.202 0.121 -0.202 0.227v0.025c0 0.126 0.025 0.247 0.05 0.373 0 0.101 0.025 0.227 0.05 0.353 0.141 0.565 0.398 1.129 0.761 1.649l-0.681 1.573a10 10 0 0 1 -0.227 -0.771c-0.101 -0.424 -0.176 -0.877 -0.252 -1.301 0 -0.126 -0.121 -0.202 -0.247 -0.202 -0.101 0.025 -0.202 0.126 -0.176 0.252 0.05 0.449 0.151 0.903 0.252 1.351 0.091 0.434 0.232 0.847 0.403 1.245 -0.176 0.413 -0.348 0.822 -0.529 1.235 -0.05 0.126 0 0.252 0.126 0.303 0.101 0.05 0.227 0 0.272 -0.126l0.529 -1.205c0.308 -0.166 0.615 -0.333 0.948 -0.545 0.353 -0.227 0.701 -0.454 1.074 -0.751 0.101 -0.05 0.126 -0.202 0.05 -0.297 -0.076 -0.101 -0.202 -0.126 -0.303 -0.05 -0.378 0.272 -0.726 0.524 -1.054 0.726l-0.439 0.252c0.096 -0.227 0.539 -1.261 0.666 -1.548 0.338 -0.141 0.681 -0.308 0.998 -0.534a7.3 7.3 0 0 0 1.129 -0.903c0.101 -0.076 0.101 -0.227 0 -0.323a0.23 0.23 0 0 0 -0.303 0 10 10 0 0 1 -1.049 0.852 6 6 0 0 1 -0.504 0.292q0.29 -0.664 0.58 -1.336c0.066 -0.02 0.373 -0.161 0.474 -0.212 0.424 -0.227 0.877 -0.55 1.25 -0.903a0.21 0.21 0 0 0 0.025 -0.303c-0.066 -0.101 -0.217 -0.101 -0.318 -0.03M17.416 6.518a49 49 0 0 0 1.346 -0.504q0.439 0.15 0.862 0.277c0.328 0.076 0.65 0.151 0.978 0.202 0.126 0 0.252 -0.076 0.252 -0.202 0.025 -0.126 -0.05 -0.227 -0.176 -0.247 -0.328 -0.05 -0.65 -0.101 -0.953 -0.176q-0.158 -0.053 -0.323 -0.106 0.621 -0.256 1.235 -0.534c0.444 0.247 0.908 0.348 1.392 0.439l0.303 0.076c0.101 0.025 0.227 -0.05 0.252 -0.176a0.23 0.23 0 0 0 -0.176 -0.277c-0.101 -0.025 -0.202 -0.025 -0.303 -0.05 -0.328 -0.071 -0.645 -0.131 -0.948 -0.247 0.091 -0.045 0.182 -0.081 0.272 -0.126 0.313 -0.156 0.63 -0.313 0.938 -0.479 0.59 0.151 1.815 0.176 1.84 0.176 0.126 0.025 0.227 -0.076 0.227 -0.202s-0.101 -0.227 -0.202 -0.227c-0.05 0 -0.857 -0.035 -1.235 -0.086a67 67 0 0 0 2.41 -1.366c0.101 -0.076 0.151 -0.202 0.076 -0.328 -0.05 -0.101 -0.202 -0.126 -0.303 -0.076a47 47 0 0 1 -2.592 1.467c0.05 -0.166 0.116 -0.343 0.187 -0.519 0.05 -0.05 0.076 -0.126 0.101 -0.176s0.05 -0.126 0.101 -0.176c0.05 -0.101 0.025 -0.252 -0.076 -0.303 -0.126 -0.076 -0.252 -0.025 -0.303 0.076 0 0 -0.479 1.064 -0.534 1.371q-0.421 0.22 -0.842 0.434l-0.313 0.146c0.025 -0.146 0.05 -0.287 0.091 -0.424 0.076 -0.272 0.176 -0.524 0.353 -0.751 0.076 -0.101 0.05 -0.252 -0.05 -0.328s-0.252 -0.05 -0.328 0.05a2.8 2.8 0 0 0 -0.398 0.903 6 6 0 0 0 -0.131 0.766c-0.484 0.222 -0.968 0.429 -1.457 0.63 0.05 -0.197 0.106 -0.393 0.187 -0.595 0.101 -0.303 0.247 -0.625 0.449 -0.978 0.05 -0.101 0.025 -0.227 -0.101 -0.303 -0.101 -0.05 -0.227 -0.025 -0.303 0.101a6.5 6.5 0 0 0 -0.474 1.024 8 8 0 0 0 -0.262 0.948c-0.403 0.156 -0.807 0.313 -1.215 0.454 -0.126 0.025 -0.176 0.151 -0.126 0.277 0.02 0.146 0.146 0.192 0.272 0.146M9.505 15.03a0.24 0.24 0 0 0 0.076 -0.303c-0.05 -0.121 -0.202 -0.146 -0.303 -0.101a6 6 0 0 0 -0.6 0.378 2.1 2.1 0 0 1 -0.545 0.297c0.227 -0.408 0.464 -0.857 0.706 -1.336 0.444 0.03 0.827 -0.212 1.215 -0.439 0.202 -0.126 0.373 -0.252 0.55 -0.303a0.24 0.24 0 0 0 0.151 -0.277c-0.05 -0.121 -0.176 -0.176 -0.277 -0.146a2.5 2.5 0 0 0 -0.65 0.348c-0.252 0.146 -0.504 0.297 -0.756 0.358 0 -0.005 0 -0.005 0.005 -0.01q0.279 -0.553 0.58 -1.129c0.58 -0.05 1.447 -0.645 1.598 -0.746 0.101 -0.05 0.126 -0.202 0.05 -0.303 -0.05 -0.101 -0.202 -0.126 -0.303 -0.076 -0.151 0.101 -0.802 0.56 -1.089 0.63 0.62 -1.17 2.087 -3.509 2.113 -3.509 0.05 -0.101 0.025 -0.247 -0.076 -0.303 -0.111 -0.071 -0.222 -0.03 -0.297 0.05 -0.736 1.049 -1.392 2.173 -1.987 3.272 -0.05 -0.252 -0.121 -1.195 -0.121 -1.245 0.025 -0.126 -0.05 -0.252 -0.176 -0.272a0.246 0.246 0 0 0 -0.252 0.202c-0.025 0.076 0.136 1.568 0.222 1.926q-0.317 0.599 -0.605 1.175 -0.036 -0.074 -0.066 -0.141c-0.176 -0.378 -0.378 -0.751 -0.277 -1.104a0.23 0.23 0 0 0 -0.176 -0.277c-0.101 -0.025 -0.227 0.05 -0.252 0.176 -0.151 0.499 0.076 0.948 0.303 1.402 0.076 0.156 0.151 0.308 0.202 0.454 -0.272 0.529 -0.529 1.029 -0.776 1.477a9 9 0 0 1 -0.202 -0.953c0 -0.101 -0.025 -0.202 -0.025 -0.277s-0.025 -0.121 -0.025 -0.202v-0.025c0 -0.126 -0.101 -0.227 -0.227 -0.227s-0.227 0.101 -0.202 0.227v0.282c0.025 0.101 0.025 0.202 0.05 0.272 0.071 0.484 0.217 1.104 0.338 1.417a10 10 0 0 1 -0.539 0.837c-0.076 0.076 -0.05 0.227 0.05 0.303s0.252 0.05 0.303 -0.05c0.197 -0.267 0.403 -0.585 0.61 -0.933 0.464 -0.04 0.741 -0.222 1.094 -0.444 0.161 -0.126 0.338 -0.227 0.59 -0.353m38.587 33.882c0.076 -0.328 0.222 -0.625 0.373 -0.928 0.076 -0.101 0.025 -0.227 -0.076 -0.303 -0.101 -0.05 -0.252 -0.025 -0.303 0.101 -0.176 0.323 -0.328 0.65 -0.429 0.998 -0.086 0.292 -0.156 0.6 -0.171 0.913 -0.504 0.313 -1.013 0.625 -1.528 0.923 0.04 -0.403 0.111 -0.802 0.222 -1.185 0.025 -0.126 0.151 -0.499 0.202 -0.625s-0.025 -0.252 -0.126 -0.277c-0.121 -0.05 -0.247 0 -0.303 0.126 -0.02 0.101 -0.171 0.55 -0.202 0.65a9.6 9.6 0 0 0 -0.267 1.578 70 70 0 0 1 -1.709 0.913q0.021 -0.377 0.126 -0.761c0.126 -0.353 0.303 -0.726 0.555 -1.079 0.076 -0.101 0.05 -0.247 -0.05 -0.303 -0.101 -0.076 -0.227 -0.05 -0.303 0.05a5.7 5.7 0 0 0 -0.63 1.2 3.5 3.5 0 0 0 -0.151 1.119c-0.928 0.464 -1.876 0.903 -2.854 1.311 -0.101 0.05 -0.151 0.176 -0.101 0.272 0.025 0.126 0.176 0.176 0.277 0.126 0.363 -0.146 0.716 -0.308 1.069 -0.459 0.02 0.015 0.035 0.025 0.055 0.035 0.323 0.151 0.65 0.227 1.003 0.277 0.323 0.025 0.676 0.025 0.998 -0.025 0.126 -0.025 0.227 -0.126 0.202 -0.252a0.244 0.244 0 0 0 -0.247 -0.202c-0.303 0.05 -0.625 0.05 -0.928 0.025a3 3 0 0 1 -0.529 -0.111c0.449 -0.207 0.892 -0.424 1.331 -0.64 0.358 0.106 0.681 0.176 0.978 0.197 0.353 0.05 0.65 0.076 0.953 0.05a0.22 0.22 0 0 0 0.222 -0.222c-0.025 -0.126 -0.121 -0.227 -0.247 -0.227a3.3 3.3 0 0 1 -0.852 -0.025 6 6 0 0 1 -0.439 -0.081c0.534 -0.282 1.069 -0.56 1.593 -0.857 0.252 0.071 0.499 0.121 0.751 0.161 0.303 0.025 0.6 0.05 0.903 0.05 0.126 0.025 0.227 -0.076 0.227 -0.202s-0.101 -0.227 -0.227 -0.227c-0.303 0 -1.013 -0.101 -1.094 -0.116a72 72 0 0 0 1.382 -0.842c0.242 0.066 0.469 0.106 0.716 0.106 0.247 0.025 0.524 0.025 0.802 0 0.121 0 0.202 -0.126 0.202 -0.247 -0.025 -0.101 -0.126 -0.202 -0.252 -0.176 -0.252 0.025 -0.847 -0.02 -0.908 -0.03a88 88 0 0 0 2.309 -1.528 0.233 0.233 0 0 0 0.05 -0.323 0.23 0.23 0 0 0 -0.323 -0.05 67 67 0 0 1 -2.37 1.588 3 3 0 0 1 0.116 -0.469M42.959 8.869c0.101 -0.101 0.176 -0.252 0.176 -0.403s-0.076 -0.303 -0.176 -0.403 -0.252 -0.176 -0.429 -0.176c-0.151 0 -0.303 0.076 -0.403 0.176s-0.176 0.227 -0.176 0.403c0 0.151 0.076 0.303 0.176 0.403s0.252 0.151 0.403 0.151c0.176 -0.005 0.328 -0.055 0.429 -0.151M13.892 39.267c0 3.111 1.412 4.699 4.301 4.855 2.405 0 4.896 0 7.361 0.176 1.598 0.111 2.96 0.837 4.089 2.198 0.933 -1.24 2.224 -1.941 4.18 -2.198 2.334 -0.176 4.714 -0.176 7.019 -0.176 2.788 -0.202 4.15 -1.664 4.15 -4.477 0 -0.121 0 -0.247 -0.01 -0.373V13.638H13.906zm19.845 -14.501h9.64v-0.948h-9.5v-0.676h9.514v-0.953h-9.514v-0.701h9.514v-0.827h-9.514v-0.701h9.514v-1.024h-9.514v-0.701h9.514v-1.134h-9.514v-0.676h9.514v-1.003h-9.64v-1.049h10.518v11.118H33.751zm-0.025 18.025h6.413c1.079 0.076 2.582 -0.575 2.582 -1.079l-8.99 -0.025v-0.6h9.363c0.025 -0.101 0.176 -0.6 0.176 -1.024h-9.53v-0.6l9.54 -0.025v-1.049h-9.54v-0.6h9.54l0.025 -1.23h-9.54v-0.6h9.54v-1.225h-9.54v-0.65h9.54v-1.155h-9.54V31.8h10.518v8.365c-0.076 2.027 -1.755 3.454 -4.134 3.252h-6.409zm-8.38 0.625h-7.261c-0.65 0.025 -1.376 -0.252 -1.805 -0.625h8.062v-1.079h-8.723a1.4 1.4 0 0 1 -0.454 -0.625h9.192v-1.024h-9.494c-0.076 -0.176 -0.096 -0.454 -0.096 -0.625h9.59v-1.049h-9.59v-0.6h9.59v-1.23h-9.59v-0.6h9.59v-1.225h-9.59v-0.65h9.59v-1.155h-9.59V31.8h10.593zm-10.598 -18.65h9.64v-0.948h-9.5v-0.676h9.514v-0.953h-9.514v-0.701h9.514v-0.827h-9.514v-0.701h9.514v-1.024h-9.514v-0.701h9.514v-1.134h-9.514v-0.676h9.514v-1.003h-9.64v-1.049h10.523v11.118H14.748zm-2.092 -11.052v25.528c0.242 4.235 2.476 6.207 6.867 6.025l6.086 0.176 0.05 0.015c1.876 0.519 3.187 1.553 4.034 3.141 0.908 -1.765 2.274 -2.849 4.16 -3.156l6.489 -0.176c3.454 -0.05 5.123 -1.629 5.259 -4.951v-0.504c-0.061 3.03 -1.629 4.699 -4.704 4.916l-0.02 -0.308v0.308c-2.4 0 -4.669 0 -6.968 0.171 -1.946 0.257 -3.141 0.928 -3.988 2.239l-0.237 0.353 -0.328 -0.413s-0.166 -0.242 -0.131 -0.187c-0.993 -1.22 -2.239 -1.891 -3.691 -1.992 -2.455 -0.166 -4.931 -0.166 -7.341 -0.166 -3.247 -0.176 -4.896 -2.012 -4.896 -5.466V13.2c-0.212 0.166 -0.499 0.398 -0.64 0.514" fill="#fff"/>
</svg>
